<svg version="1.1" id="Layer_1" xmlns="http://www.w3.org/2000/svg" xmlns:xlink="http://www.w3.org/1999/xlink" x="0px" y="0px"
	 width="100%" viewBox="0 0 512 512" enable-background="new 0 0 512 512" xml:space="preserve">
<path fill="#000000" opacity="1.000000" stroke="none" 
	d="
M297.000000,513.000000 
	C198.024033,513.000000 99.548058,513.000000 1.036045,513.000000 
	C1.036045,342.399017 1.036045,171.798004 1.036045,1.098500 
	C171.559311,1.098500 342.118713,1.098500 512.839050,1.098500 
	C512.839050,171.666550 512.839050,342.333252 512.839050,513.000000 
	C441.131317,513.000000 369.315643,513.000000 297.000000,513.000000 
M195.269470,87.218460 
	C190.075958,90.508820 184.882446,93.799179 178.886719,97.061249 
	C172.256927,99.763100 165.627136,102.464943 158.236938,105.286407 
	C150.453033,107.176620 142.669128,109.066841 133.986664,110.995804 
	C128.657440,111.386070 123.328217,111.776337 117.075058,112.022690 
	C112.049400,112.070755 107.023750,112.118820 101.071617,112.022621 
	C95.046829,112.070702 89.022034,112.118774 82.070076,112.022957 
	C75.578476,112.014671 69.040695,112.488045 62.607437,111.871216 
	C55.239349,111.164749 51.819653,115.898140 51.979984,122.550568 
	C52.363319,138.455765 52.498959,154.368759 53.059338,170.267166 
	C53.377270,179.287186 53.736767,188.378860 55.135925,197.271729 
	C57.680740,213.446274 60.053852,229.753662 64.274376,245.530579 
	C69.013870,263.247437 75.719620,280.438293 81.874817,298.361725 
	C87.879646,310.256470 93.884483,322.151184 100.009583,334.756317 
	C105.066849,342.175629 110.124115,349.594971 115.165115,357.595947 
	C115.483780,357.818695 115.802452,358.041412 116.131378,358.613434 
	C116.131378,358.613434 116.434814,358.786743 116.861389,359.293854 
	C123.205055,366.878906 129.548721,374.463959 136.168213,382.678833 
	C143.098953,389.825165 150.029709,396.971466 157.215210,404.729828 
	C163.440002,410.502014 169.664810,416.274200 176.165421,422.674194 
	C183.430984,428.825500 190.696564,434.976837 198.263885,441.740753 
	C203.830078,445.867035 209.396255,449.993317 215.236099,454.747345 
	C220.490784,458.441803 225.745453,462.136292 231.631577,466.133453 
	C236.404785,469.458405 241.177994,472.783356 246.279037,476.738464 
	C247.922867,477.724945 249.575287,478.697449 251.208771,479.700775 
	C255.086288,482.082550 260.388550,481.433990 264.767303,478.005707 
	C269.844238,474.614899 274.921173,471.224121 280.684052,467.776001 
	C285.470428,464.221771 290.256775,460.667572 295.676331,456.827728 
	C300.795349,452.919586 305.914368,449.011444 311.663910,444.835541 
	C317.458679,439.926788 323.253448,435.018005 329.669556,429.833496 
	C334.460449,425.596283 339.251343,421.359039 344.657990,416.843201 
	C349.787842,411.598419 354.917664,406.353638 360.664520,400.836395 
	C367.818512,393.238281 374.972473,385.640167 382.735413,377.736450 
	C385.141663,374.672821 387.641632,371.677521 389.935455,368.531952 
	C395.358002,361.095886 400.682526,353.588348 406.683289,345.818329 
	C417.303894,330.187927 426.607819,313.858398 433.757294,295.676880 
	C434.037170,294.751831 434.295990,293.819824 434.600067,292.902802 
	C439.388824,278.460999 444.846436,264.201508 448.834229,249.542084 
	C456.389648,221.767456 459.974243,193.249268 461.831085,164.592728 
	C462.776337,150.004837 462.216553,135.300247 461.884857,120.658653 
	C461.759949,115.145752 458.506226,111.587112 452.956268,111.909851 
	C445.656921,112.334328 438.319855,112.111374 430.071381,112.025063 
	C421.380554,112.072136 412.689728,112.119202 403.075073,112.024742 
	C395.382812,111.738747 387.690582,111.452751 379.271637,110.792366 
	C370.847198,108.916992 362.422729,107.041611 353.323608,104.834976 
	C345.563782,101.518997 337.803925,98.203018 329.758911,94.253906 
	C323.183472,89.800682 316.608002,85.347450 309.722015,80.291153 
	C304.523621,75.512428 299.325226,70.733704 293.856720,65.334755 
	C286.585510,58.185036 279.314270,51.035316 271.782257,43.275482 
	C269.340973,40.844421 266.932190,38.379585 264.451447,35.989483 
	C259.605042,31.320152 253.462341,31.695734 248.336929,37.161839 
	C241.519455,44.094082 234.701965,51.026325 227.273071,58.215611 
	C222.143677,63.462864 217.014297,68.710121 211.272888,74.217392 
	C206.153107,78.462555 201.033310,82.707718 195.269470,87.218460 
z"/>
<path fill="#466AFF" opacity="1.000000" stroke="none" 
	d="
M379.998322,111.166763 
	C387.690582,111.452751 395.382812,111.738747 403.537354,112.553543 
	C403.999786,187.037155 403.970245,260.992035 404.087067,334.946655 
	C404.092957,338.668732 405.364471,342.388763 406.046692,346.109741 
	C400.682526,353.588348 395.358002,361.095886 389.935455,368.531952 
	C387.641632,371.677521 385.141663,374.672821 382.068176,377.767212 
	C380.600708,375.258972 379.104736,372.720978 379.101044,370.180847 
	C378.979218,286.300812 378.991852,202.420578 379.042236,118.540398 
	C379.043701,116.082329 379.665680,113.624634 379.998322,111.166763 
z"/>
<path fill="#4170FF" opacity="1.000000" stroke="none" 
	d="
M379.634979,110.979568 
	C379.665680,113.624634 379.043701,116.082329 379.042236,118.540398 
	C378.991852,202.420578 378.979218,286.300812 379.101044,370.180847 
	C379.104736,372.720978 380.600708,375.258972 381.763702,377.919983 
	C374.972473,385.640167 367.818512,393.238281 360.190582,400.581665 
	C359.477783,398.030731 359.033813,395.734863 359.030823,393.438385 
	C358.986267,359.185181 359.020966,324.931854 358.952026,290.678711 
	C358.947510,288.438599 358.254425,286.199860 357.932037,283.543152 
	C358.105896,282.162384 358.122589,281.170654 358.369110,280.239807 
	C361.169220,269.666382 362.303711,258.720428 360.663605,248.104965 
	C358.881775,236.572113 354.901245,225.378952 352.245728,213.881378 
	C353.074646,211.726837 353.935760,209.729568 353.940582,207.730240 
	C354.022675,173.542389 353.998840,139.354279 353.998291,105.166237 
	C362.422729,107.041611 370.847198,108.916992 379.634979,110.979568 
z"/>
<path fill="#14A8FF" opacity="1.000000" stroke="none" 
	d="
M134.885223,110.957062 
	C142.669128,109.066841 150.453033,107.176620 158.617706,105.684647 
	C158.998993,142.314499 158.969528,178.546219 159.077911,214.777512 
	C159.084122,216.852463 160.215759,218.924026 160.770157,221.368988 
	C158.823883,228.563263 156.048126,235.285980 155.263214,242.233612 
	C154.295410,250.799942 154.583847,259.577057 155.091827,268.218262 
	C155.461365,274.504303 157.067001,280.717621 157.892059,287.253906 
	C157.775024,290.495605 157.983170,293.446716 157.985229,296.397949 
	C158.008408,329.514130 158.024796,362.630402 157.954803,395.746429 
	C157.948914,398.537567 157.306931,401.327362 156.960464,404.117798 
	C150.029709,396.971466 143.098953,389.825165 136.277740,382.025757 
	C136.591522,379.072357 136.973083,376.772156 136.974197,374.471741 
	C137.006149,308.146118 137.000031,241.820465 136.999954,175.494827 
	C136.999939,155.830444 137.056000,136.165634 136.907257,116.502380 
	C136.893234,114.648949 135.589935,112.805275 134.885223,110.957062 
z"/>
<path fill="#4C63FF" opacity="1.000000" stroke="none" 
	d="
M406.364990,345.964050 
	C405.364471,342.388763 404.092957,338.668732 404.087067,334.946655 
	C403.970245,260.992035 403.999786,187.037155 403.999268,112.624298 
	C412.689728,112.119202 421.380554,112.072136 430.535522,112.553940 
	C430.999847,171.660934 430.974884,230.239090 431.089478,288.816986 
	C431.094208,291.226990 432.409088,293.634430 433.113586,296.043060 
	C426.607819,313.858398 417.303894,330.187927 406.364990,345.964050 
z"/>
<path fill="#0FADFF" opacity="1.000000" stroke="none" 
	d="
M134.435944,110.976440 
	C135.589935,112.805275 136.893234,114.648949 136.907257,116.502380 
	C137.056000,136.165634 136.999939,155.830444 136.999954,175.494827 
	C137.000031,241.820465 137.006149,308.146118 136.974197,374.471741 
	C136.973083,376.772156 136.591522,379.072357 136.139832,381.710846 
	C129.548721,374.463959 123.205055,366.878906 116.882996,358.618652 
	C117.269730,355.171082 117.951851,352.398895 117.953850,349.626251 
	C118.010757,270.473053 117.999329,191.319824 117.998993,112.166595 
	C123.328217,111.776337 128.657440,111.386070 134.435944,110.976440 
z"/>
<path fill="#04BBFF" opacity="1.000000" stroke="none" 
	d="
M81.569939,297.857971 
	C75.719620,280.438293 69.013870,263.247437 64.274376,245.530579 
	C60.053852,229.753662 57.680740,213.446274 55.135925,197.271729 
	C53.736767,188.378860 53.377270,179.287186 53.059338,170.267166 
	C52.498959,154.368759 52.363319,138.455765 51.979984,122.550568 
	C51.819653,115.898140 55.239349,111.164749 62.607437,111.871216 
	C69.040695,112.488045 75.578476,112.014671 82.534286,112.552963 
	C82.999001,170.227463 83.031235,227.372009 82.938217,284.516357 
	C82.930984,288.964294 82.046631,293.410797 81.569939,297.857971 
z"/>
<path fill="#515CFF" opacity="1.000000" stroke="none" 
	d="
M433.435425,295.859985 
	C432.409088,293.634430 431.094208,291.226990 431.089478,288.816986 
	C430.974884,230.239090 430.999847,171.660934 430.999359,112.624817 
	C438.319855,112.111374 445.656921,112.334328 452.956268,111.909851 
	C458.506226,111.587112 461.759949,115.145752 461.884857,120.658653 
	C462.216553,135.300247 462.776337,150.004837 461.831085,164.592728 
	C459.974243,193.249268 456.389648,221.767456 448.834229,249.542084 
	C444.846436,264.201508 439.388824,278.460999 434.600067,292.902802 
	C434.295990,293.819824 434.037170,294.751831 433.435425,295.859985 
z"/>
<path fill="#09B6FF" opacity="1.000000" stroke="none" 
	d="
M81.722382,298.109863 
	C82.046631,293.410797 82.930984,288.964294 82.938217,284.516357 
	C83.031235,227.372009 82.999001,170.227463 82.997871,112.624908 
	C89.022034,112.118774 95.046829,112.070702 101.535278,112.552795 
	C101.999245,183.210724 102.030136,253.338516 101.910110,323.466064 
	C101.904076,326.993835 100.592842,330.519348 99.889320,334.045929 
	C93.884483,322.151184 87.879646,310.256470 81.722382,298.109863 
z"/>
<path fill="#0CB1FF" opacity="1.000000" stroke="none" 
	d="
M99.949448,334.401123 
	C100.592842,330.519348 101.904076,326.993835 101.910110,323.466064 
	C102.030136,253.338516 101.999245,183.210724 101.998512,112.624924 
	C107.023750,112.118820 112.049400,112.070755 117.537025,112.094643 
	C117.999329,191.319824 118.010757,270.473053 117.953850,349.626251 
	C117.951851,352.398895 117.269730,355.171082 116.669708,358.365112 
	C116.434814,358.786743 116.131378,358.613434 115.990540,358.209534 
	C115.626923,357.541840 115.404160,357.278046 115.181381,357.014282 
	C110.124115,349.594971 105.066849,342.175629 99.949448,334.401123 
z"/>
<path fill="#2B8BFF" opacity="1.000000" stroke="none" 
	d="
M248.954239,36.889088 
	C253.462341,31.695734 259.605042,31.320152 264.451447,35.989483 
	C266.932190,38.379585 269.340973,40.844421 271.903137,44.056435 
	C272.015991,65.593773 272.131958,86.351181 271.959869,107.106194 
	C271.827911,123.016968 271.332489,138.924713 270.575684,154.890503 
	C268.411316,154.631226 266.677490,154.100616 264.927399,154.040176 
	C259.954742,153.868454 254.975449,153.888672 249.999023,153.375122 
	C249.999527,116.846672 250.021362,80.776405 249.954971,44.706303 
	C249.950165,42.099960 249.302826,39.494797 248.954239,36.889088 
z"/>
<path fill="#3C77FF" opacity="1.000000" stroke="none" 
	d="
M353.660950,105.000610 
	C353.998840,139.354279 354.022675,173.542389 353.940582,207.730240 
	C353.935760,209.729568 353.074646,211.726837 351.934265,213.715744 
	C345.744110,201.186096 337.262360,190.790527 328.130615,180.703033 
	C328.586975,178.406754 328.969818,176.446594 328.973175,174.485779 
	C329.014404,150.391815 328.970245,126.297646 329.045776,102.203835 
	C329.053406,99.763885 329.696106,97.325920 330.044098,94.887039 
	C337.803925,98.203018 345.563782,101.518997 353.660950,105.000610 
z"/>
<path fill="#2790FF" opacity="1.000000" stroke="none" 
	d="
M248.645584,37.025463 
	C249.302826,39.494797 249.950165,42.099960 249.954971,44.706303 
	C250.021362,80.776405 249.999527,116.846672 249.572998,153.446198 
	C242.776993,155.023880 236.407318,156.072250 230.029175,156.644470 
	C230.013748,125.438751 230.046371,94.709000 229.909073,63.980007 
	C229.900101,61.969887 228.589584,59.965576 227.884476,57.958565 
	C234.701965,51.026325 241.519455,44.094082 248.645584,37.025463 
z"/>
<path fill="#18A3FF" opacity="1.000000" stroke="none" 
	d="
M160.823639,220.997177 
	C160.215759,218.924026 159.084122,216.852463 159.077911,214.777512 
	C158.969528,178.546219 158.998993,142.314499 158.997910,105.624840 
	C165.627136,102.464943 172.256927,99.763100 179.347931,97.600800 
	C179.872589,125.537148 179.910446,152.934082 180.047119,180.330521 
	C180.058289,182.568954 180.743530,184.804031 180.974045,187.358154 
	C180.105606,188.730911 179.473557,189.868896 178.636978,190.828613 
	C170.829590,199.785110 164.860123,209.818329 160.823639,220.997177 
z"/>
<path fill="#18A3FF" opacity="1.000000" stroke="none" 
	d="
M157.087830,404.423828 
	C157.306931,401.327362 157.948914,398.537567 157.954803,395.746429 
	C158.024796,362.630402 158.008408,329.514130 157.985229,296.397949 
	C157.983170,293.446716 157.775024,290.495605 158.220261,287.437805 
	C162.522064,301.473328 170.409180,313.379913 178.956207,325.301300 
	C178.580582,328.343292 178.043976,330.967834 178.038010,333.593536 
	C177.976212,360.838684 178.049301,388.084259 177.908417,415.328857 
	C177.896805,417.571442 176.593002,419.807373 175.889603,422.046387 
	C169.664810,416.274200 163.440002,410.502014 157.087830,404.423828 
z"/>
<path fill="#3085FF" opacity="1.000000" stroke="none" 
	d="
M270.998779,154.833817 
	C271.332489,138.924713 271.827911,123.016968 271.959869,107.106194 
	C272.131958,86.351181 272.015991,65.593773 272.033508,44.361492 
	C279.314270,51.035316 286.585510,58.185036 293.625549,65.803162 
	C292.929718,68.267929 292.066223,70.263115 292.060272,72.260834 
	C291.973450,101.453598 292.001160,130.646713 291.628357,159.788361 
	C284.502991,158.102600 277.750885,156.468201 270.998779,154.833817 
z"/>
<path fill="#1C9DFF" opacity="1.000000" stroke="none" 
	d="
M176.027512,422.360291 
	C176.593002,419.807373 177.896805,417.571442 177.908417,415.328857 
	C178.049301,388.084259 177.976212,360.838684 178.038010,333.593536 
	C178.043976,330.967834 178.580582,328.343292 179.265976,325.436340 
	C185.787735,330.730835 191.914352,336.307281 198.031769,342.359558 
	C198.002411,375.599670 197.982269,408.363922 197.962128,441.128143 
	C190.696564,434.976837 183.430984,428.825500 176.027512,422.360291 
z"/>
<path fill="#2B8BFF" opacity="1.000000" stroke="none" 
	d="
M264.042877,478.115204 
	C260.388550,481.433990 255.086288,482.082550 251.208771,479.700775 
	C249.575287,478.697449 247.922867,477.724945 246.280975,476.032593 
	C246.522156,473.030151 246.967041,470.733826 246.969818,468.436981 
	C247.013443,432.346649 247.000122,396.256256 247.427948,360.093567 
	C252.904617,360.402832 257.953247,360.784393 263.001526,361.624207 
	C263.000854,397.807922 262.975952,433.533447 263.045288,469.258759 
	C263.051025,472.211548 263.695312,475.163086 264.042877,478.115204 
z"/>
<path fill="#2E88FF" opacity="1.000000" stroke="none" 
	d="
M264.405090,478.060455 
	C263.695312,475.163086 263.051025,472.211548 263.045288,469.258759 
	C262.975952,433.533447 263.000854,397.807922 263.375275,361.430603 
	C268.820709,360.145569 273.892120,359.512390 278.971680,359.355347 
	C278.986542,393.047333 278.969513,426.263245 279.043213,459.478912 
	C279.049408,462.264435 279.665405,465.048553 279.998108,467.833344 
	C274.921173,471.224121 269.844238,474.614899 264.405090,478.060455 
z"/>
<path fill="#2099FF" opacity="1.000000" stroke="none" 
	d="
M198.113007,441.434448 
	C197.982269,408.363922 198.002411,375.599670 198.354141,342.503784 
	C204.456375,345.503693 210.227005,348.835266 215.998169,352.625061 
	C215.999084,383.810760 216.027664,414.538330 215.954620,445.265656 
	C215.947601,448.217773 215.308243,451.168335 214.962433,454.119629 
	C209.396255,449.993317 203.830078,445.867035 198.113007,441.434448 
z"/>
<path fill="#2790FF" opacity="1.000000" stroke="none" 
	d="
M246.999878,360.165863 
	C247.000122,396.256256 247.013443,432.346649 246.969818,468.436981 
	C246.967041,470.733826 246.522156,473.030151 246.117065,475.717529 
	C241.177994,472.783356 236.404785,469.458405 231.315765,465.524231 
	C230.999985,431.677399 230.978210,398.439728 231.044876,365.202209 
	C231.049759,362.761719 231.693146,360.322510 232.463669,357.932800 
	C237.591721,358.710541 242.295807,359.438202 246.999878,360.165863 
z"/>
<path fill="#377CFF" opacity="1.000000" stroke="none" 
	d="
M329.901489,94.570473 
	C329.696106,97.325920 329.053406,99.763885 329.045776,102.203835 
	C328.970245,126.297646 329.014404,150.391815 328.973175,174.485779 
	C328.969818,176.446594 328.586975,178.406754 327.820892,180.567352 
	C321.161133,176.217926 315.060944,171.668365 308.969666,166.642792 
	C308.985718,142.368988 308.939026,118.570961 309.046509,94.773636 
	C309.067383,90.145775 309.688354,85.520630 310.032532,80.894226 
	C316.608002,85.347450 323.183472,89.800682 329.901489,94.570473 
z"/>
<path fill="#3085FF" opacity="1.000000" stroke="none" 
	d="
M280.341064,467.804688 
	C279.665405,465.048553 279.049408,462.264435 279.043213,459.478912 
	C278.969513,426.263245 278.986542,393.047333 279.169281,359.022766 
	C284.559448,356.766449 289.760193,355.318848 294.969604,354.347900 
	C294.999939,388.920807 295.021545,423.017090 295.043152,457.113342 
	C290.256775,460.667572 285.470428,464.221771 280.341064,467.804688 
z"/>
<path fill="#377CFF" opacity="1.000000" stroke="none" 
	d="
M329.048218,430.109253 
	C323.253448,435.018005 317.458679,439.926788 311.341309,444.494141 
	C311.012451,413.998657 311.029846,383.844482 310.952087,353.690582 
	C310.946289,351.444733 310.258240,349.200684 310.032532,346.637512 
	C316.106689,341.840515 322.035645,337.361816 327.972717,333.359070 
	C327.987274,363.482178 327.969208,393.129395 328.045593,422.776398 
	C328.051880,425.221527 328.698914,427.665009 329.048218,430.109253 
z"/>
<path fill="#3E74FF" opacity="1.000000" stroke="none" 
	d="
M357.881592,283.960480 
	C358.254425,286.199860 358.947510,288.438599 358.952026,290.678711 
	C359.020966,324.931854 358.986267,359.185181 359.030823,393.438385 
	C359.033813,395.734863 359.477783,398.030731 359.882080,400.717865 
	C354.917664,406.353638 349.787842,411.598419 344.340698,416.506195 
	C344.015625,385.010254 344.030762,353.851288 343.951996,322.692535 
	C343.946320,320.447113 343.255524,318.203369 343.031006,315.635071 
	C348.079651,304.860992 352.980621,294.410736 357.881592,283.960480 
z"/>
<path fill="#3480FF" opacity="1.000000" stroke="none" 
	d="
M309.887360,346.955811 
	C310.258240,349.200684 310.946289,351.444733 310.952087,353.690582 
	C311.029846,383.844482 311.012451,413.998657 311.026062,444.628021 
	C305.914368,449.011444 300.795349,452.919586 295.359741,456.970520 
	C295.021545,423.017090 294.999939,388.920807 295.146057,354.027466 
	C300.171661,351.138855 305.029510,349.047333 309.887360,346.955811 
z"/>
<path fill="#3C77FF" opacity="1.000000" stroke="none" 
	d="
M342.883301,315.958862 
	C343.255524,318.203369 343.946320,320.447113 343.951996,322.692535 
	C344.030762,353.851288 344.015625,385.010254 344.032837,416.645508 
	C339.251343,421.359039 334.460449,425.596283 329.358887,429.971375 
	C328.698914,427.665009 328.051880,425.221527 328.045593,422.776398 
	C327.969208,393.129395 327.987274,363.482178 328.102478,333.054626 
	C333.110535,326.835815 337.996918,321.397339 342.883301,315.958862 
z"/>
<path fill="#2395FF" opacity="1.000000" stroke="none" 
	d="
M232.039673,357.882721 
	C231.693146,360.322510 231.049759,362.761719 231.044876,365.202209 
	C230.978210,398.439728 230.999985,431.677399 231.000031,465.372925 
	C225.745453,462.136292 220.490784,458.441803 215.099274,454.433472 
	C215.308243,451.168335 215.947601,448.217773 215.954620,445.265656 
	C216.027664,414.538330 215.999084,383.810760 216.368591,352.673615 
	C221.838898,354.136871 226.939285,356.009796 232.039673,357.882721 
z"/>
<path fill="#3480FF" opacity="1.000000" stroke="none" 
	d="
M309.877258,80.592697 
	C309.688354,85.520630 309.067383,90.145775 309.046509,94.773636 
	C308.939026,118.570961 308.985718,142.368988 308.602997,166.585251 
	C302.818817,164.615738 297.410187,162.227737 292.001587,159.839737 
	C292.001160,130.646713 291.973450,101.453598 292.060272,72.260834 
	C292.066223,70.263115 292.929718,68.267929 293.760620,66.113266 
	C299.325226,70.733704 304.523621,75.512428 309.877258,80.592697 
z"/>
<path fill="#2395FF" opacity="1.000000" stroke="none" 
	d="
M227.578766,58.087090 
	C228.589584,59.965576 229.900101,61.969887 229.909073,63.980007 
	C230.046371,94.709000 230.013748,125.438751 229.842606,156.970840 
	C224.480820,159.530151 219.297180,161.286957 213.885803,162.751404 
	C213.770981,160.172302 213.979889,157.885635 213.982056,155.598755 
	C214.006073,130.294739 214.043579,104.990417 213.907379,79.687096 
	C213.897064,77.773621 212.589462,75.867119 211.884903,73.957375 
	C217.014297,68.710121 222.143677,63.462864 227.578766,58.087090 
z"/>
<path fill="#1C9DFF" opacity="1.000000" stroke="none" 
	d="
M181.115555,187.040649 
	C180.743530,184.804031 180.058289,182.568954 180.047119,180.330521 
	C179.910446,152.934082 179.872589,125.537148 179.749039,97.614944 
	C184.882446,93.799179 190.075958,90.508820 195.834961,87.426071 
	C196.600311,89.758209 196.969910,91.882408 196.974197,94.007339 
	C197.027420,120.377151 197.027481,146.747086 196.904633,173.429840 
	C191.550568,178.175339 186.333069,182.608002 181.115555,187.040649 
z"/>
<path fill="#2099FF" opacity="1.000000" stroke="none" 
	d="
M197.041229,173.116974 
	C197.027481,146.747086 197.027420,120.377151 196.974197,94.007339 
	C196.969910,91.882408 196.600311,89.758209 196.156998,87.293274 
	C201.033310,82.707718 206.153107,78.462555 211.578888,74.087387 
	C212.589462,75.867119 213.897064,77.773621 213.907379,79.687096 
	C214.043579,104.990417 214.006073,130.294739 213.982056,155.598755 
	C213.979889,157.885635 213.770981,160.172302 213.719452,163.070801 
	C208.200943,166.827347 202.621094,169.972168 197.041229,173.116974 
z"/>
<path fill="#0FADFF" opacity="1.000000" stroke="none" 
	d="
M115.173248,357.305115 
	C115.404160,357.278046 115.626923,357.541840 115.985405,358.034882 
	C115.802452,358.041412 115.483780,357.818695 115.173248,357.305115 
z"/>
<path fill="#000000" opacity="1.000000" stroke="none" 
	d="
M196.904648,173.429840 
	C202.621094,169.972168 208.200943,166.827347 213.947174,163.363129 
	C219.297180,161.286957 224.480820,159.530151 229.851044,157.446991 
	C236.407318,156.072250 242.776993,155.023880 249.572723,153.904419 
	C254.975449,153.888672 259.954742,153.868454 264.927399,154.040176 
	C266.677490,154.100616 268.411316,154.631226 270.575684,154.890503 
	C277.750885,156.468201 284.502991,158.102600 291.628357,159.788361 
	C297.410187,162.227737 302.818817,164.615738 308.594086,167.061279 
	C315.060944,171.668365 321.161133,176.217926 327.571045,180.903168 
	C337.262360,190.790527 345.744110,201.186096 351.567932,213.872040 
	C354.901245,225.378952 358.881775,236.572113 360.663605,248.104965 
	C362.303711,258.720428 361.169220,269.666382 358.369110,280.239807 
	C358.122589,281.170654 358.105896,282.162384 357.932007,283.543152 
	C352.980621,294.410736 348.079651,304.860992 343.031006,315.635071 
	C337.996918,321.397339 333.110535,326.835815 328.094360,332.578705 
	C322.035645,337.361816 316.106689,341.840515 310.032532,346.637512 
	C305.029510,349.047333 300.171661,351.138855 295.137360,353.550842 
	C289.760193,355.318848 284.559448,356.766449 279.161133,358.546631 
	C273.892120,359.512390 268.820709,360.145569 263.375610,360.972351 
	C257.953247,360.784393 252.904617,360.402832 247.427948,360.093567 
	C242.295807,359.438202 237.591721,358.710541 232.463654,357.932800 
	C226.939285,356.009796 221.838898,354.136871 216.368073,352.215393 
	C210.227005,348.835266 204.456375,345.503693 198.363342,342.027924 
	C191.914352,336.307281 185.787735,330.730835 179.351334,325.019409 
	C170.409180,313.379913 162.522064,301.473328 158.449738,287.147278 
	C157.067001,280.717621 155.461365,274.504303 155.091827,268.218262 
	C154.583847,259.577057 154.295410,250.799942 155.263214,242.233612 
	C156.048126,235.285980 158.823883,228.563263 160.770157,221.368988 
	C164.860123,209.818329 170.829590,199.785110 178.636978,190.828613 
	C179.473557,189.868896 180.105606,188.730911 180.974045,187.358139 
	C186.333069,182.608002 191.550568,178.175339 196.904648,173.429840 
M274.802032,343.976013 
	C281.200775,341.928406 287.599548,339.880798 294.704102,337.762817 
	C301.482727,333.214264 308.261383,328.665680 315.668488,323.834106 
	C319.591248,319.904816 324.119202,316.413269 327.332581,311.970856 
	C341.729492,292.067841 348.606415,270.128662 345.094299,245.253738 
	C342.017700,223.463242 332.484131,205.399323 315.767700,190.262421 
	C310.524109,186.801331 305.280487,183.340240 299.705048,179.252823 
	C294.802612,177.224030 289.900177,175.195236 284.218262,173.007126 
	C275.718353,170.087296 267.033691,168.428864 257.083344,169.024643 
	C248.425507,168.664810 239.999710,169.793213 231.108719,172.996597 
	C223.059387,176.958466 215.010056,180.920319 206.322662,185.169617 
	C200.027008,191.132889 193.031906,196.523300 187.581024,203.178467 
	C176.167923,217.113144 170.277451,233.623505 169.102081,251.514435 
	C167.964569,268.829742 171.593613,285.398163 180.263657,300.509705 
	C187.984619,313.967041 198.126480,325.293884 212.640900,333.143402 
	C222.982178,340.304688 234.658859,343.541260 247.861191,344.978760 
	C256.667999,346.760315 265.353882,345.782867 274.802032,343.976013 
z"/>
<path fill="#1D9CFF" opacity="1.000000" stroke="none" 
	d="
M211.998169,332.833282 
	C198.126480,325.293884 187.984619,313.967041 180.263657,300.509705 
	C171.593613,285.398163 167.964569,268.829742 169.102081,251.514435 
	C170.277451,233.623505 176.167923,217.113144 187.581024,203.178467 
	C193.031906,196.523300 200.027008,191.132889 206.726624,185.443146 
	C207.420334,188.172760 207.952332,190.627945 207.961334,193.085052 
	C208.030731,212.000900 207.998672,230.917130 207.641357,249.909409 
	C200.270966,254.874191 199.941650,258.366516 205.864014,264.368622 
	C208.627975,267.169769 211.318100,270.043793 213.878021,273.276611 
	C213.476273,275.799164 213.040390,277.929077 213.031845,280.060730 
	C212.971832,295.029144 213.047729,309.998230 212.954819,324.966309 
	C212.938522,327.590485 212.332062,330.211060 211.998169,332.833282 
z"/>
<path fill="#397BFF" opacity="1.000000" stroke="none" 
	d="
M316.044006,190.887283 
	C332.484131,205.399323 342.017700,223.463242 345.094299,245.253738 
	C348.606415,270.128662 341.729492,292.067841 327.332581,311.970856 
	C324.119202,316.413269 319.591248,319.904816 315.269104,323.558411 
	C314.579895,320.817688 314.040863,318.352997 314.037476,315.887573 
	C313.984344,277.252930 313.954468,238.617996 314.088531,199.983719 
	C314.099060,196.949356 315.362732,193.919327 316.044006,190.887283 
z"/>
<path fill="#288FFF" opacity="1.000000" stroke="none" 
	d="
M231.890625,172.952805 
	C239.999710,169.793213 248.425507,168.664810 257.573608,169.504883 
	C258.375946,172.939377 258.949860,175.892883 258.958710,178.848053 
	C259.031799,203.239243 258.950653,227.631027 259.091553,252.021606 
	C259.103149,254.030365 260.407196,256.031647 260.977325,258.347107 
	C254.408218,265.260895 247.972458,271.864014 241.200394,278.812164 
	C237.739792,275.182922 234.810608,272.110962 232.131073,268.703064 
	C232.586365,267.070374 232.969940,265.773834 232.971481,264.476868 
	C233.005829,235.544708 233.015442,206.612457 232.951080,177.680405 
	C232.947571,176.103760 232.259857,174.528641 231.890625,172.952805 
z"/>
<path fill="#3480FF" opacity="1.000000" stroke="none" 
	d="
M315.905853,190.574860 
	C315.362732,193.919327 314.099060,196.949356 314.088531,199.983719 
	C313.954468,238.617996 313.984344,277.252930 314.037476,315.887573 
	C314.040863,318.352997 314.579895,320.817688 314.954865,323.699890 
	C308.261383,328.665680 301.482727,333.214264 294.351624,337.339996 
	C293.999420,309.336273 294.023590,281.755310 293.951782,254.174591 
	C293.946381,252.101791 293.256012,250.030746 293.020569,247.649857 
	C298.172272,242.324844 303.090942,237.206940 308.239624,232.331970 
	C311.227325,229.503082 313.339294,226.155548 311.580780,222.387161 
	C309.917664,218.823166 306.392334,217.019165 301.729828,217.888245 
	C300.911316,216.057037 300.078552,214.391006 300.062164,212.716995 
	C299.955200,201.772018 300.024872,190.825302 300.036865,179.879150 
	C305.280487,183.340240 310.524109,186.801331 315.905853,190.574860 
z"/>
<path fill="#2395FF" opacity="1.000000" stroke="none" 
	d="
M231.499664,172.974701 
	C232.259857,174.528641 232.947571,176.103760 232.951080,177.680405 
	C233.015442,206.612457 233.005829,235.544708 232.971481,264.476868 
	C232.969940,265.773834 232.586365,267.070374 231.826355,268.573364 
	C226.229248,263.732788 221.377319,258.470886 216.050461,253.744247 
	C213.901520,251.837463 210.713333,251.101837 207.998108,249.833237 
	C207.998672,230.917130 208.030731,212.000900 207.961334,193.085052 
	C207.952332,190.627945 207.420334,188.172760 207.045654,185.299423 
	C215.010056,180.920319 223.059387,176.958466 231.499664,172.974701 
z"/>
<path fill="#2E88FF" opacity="1.000000" stroke="none" 
	d="
M261.110687,258.036407 
	C260.407196,256.031647 259.103149,254.030365 259.091553,252.021606 
	C258.950653,227.631027 259.031799,203.239243 258.958710,178.848053 
	C258.949860,175.892883 258.375946,172.939377 258.031006,169.575760 
	C267.033691,168.428864 275.718353,170.087296 284.599243,173.502869 
	C284.653473,178.597824 284.098694,183.194397 284.044830,187.796814 
	C283.909363,199.372513 283.843903,210.954254 284.093781,222.526138 
	C284.170258,226.068695 285.360596,229.587189 285.910645,233.421387 
	C277.557190,241.829529 269.333923,249.932968 261.110687,258.036407 
z"/>
<path fill="#2592FF" opacity="1.000000" stroke="none" 
	d="
M212.319534,332.988342 
	C212.332062,330.211060 212.938522,327.590485 212.954819,324.966309 
	C213.047729,309.998230 212.971832,295.029144 213.031845,280.060730 
	C213.040390,277.929077 213.476273,275.799164 214.187820,273.411530 
	C221.369476,279.865082 228.071350,286.581818 234.788376,293.283447 
	C238.483688,296.970276 241.667603,297.128571 246.125610,294.276428 
	C246.525192,296.793793 246.958954,298.918152 246.967636,301.044220 
	C247.027252,315.640381 246.997894,330.236938 246.997177,344.833344 
	C234.658859,343.541260 222.982178,340.304688 212.319534,332.988342 
z"/>
<path fill="#2B8BFF" opacity="1.000000" stroke="none" 
	d="
M247.429184,344.906067 
	C246.997894,330.236938 247.027252,315.640381 246.967636,301.044220 
	C246.958954,298.918152 246.525192,296.793793 246.254578,293.971313 
	C255.136246,284.479309 264.051453,275.684631 272.982849,267.323486 
	C273.332703,272.869965 273.926270,277.981537 273.954193,283.096191 
	C274.064697,303.341339 273.998077,323.587433 273.997131,343.833191 
	C265.353882,345.782867 256.667999,346.760315 247.429184,344.906067 
z"/>
<path fill="#3085FF" opacity="1.000000" stroke="none" 
	d="
M274.399597,343.904602 
	C273.998077,323.587433 274.064697,303.341339 273.954193,283.096191 
	C273.926270,277.981537 273.332703,272.869965 273.108459,267.015594 
	C279.773224,260.169128 286.328644,254.063995 292.884033,247.958893 
	C293.256012,250.030746 293.946381,252.101791 293.951782,254.174591 
	C294.023590,281.755310 293.999420,309.336273 293.998718,337.375183 
	C287.599548,339.880798 281.200775,341.928406 274.399597,343.904602 
z"/>
<path fill="#3382FF" opacity="1.000000" stroke="none" 
	d="
M286.040863,233.116699 
	C285.360596,229.587189 284.170258,226.068695 284.093781,222.526138 
	C283.843903,210.954254 283.909363,199.372513 284.044830,187.796814 
	C284.098694,183.194397 284.653473,178.597824 284.988983,173.582520 
	C289.900177,175.195236 294.802612,177.224030 299.870972,179.565994 
	C300.024872,190.825302 299.955200,201.772018 300.062164,212.716995 
	C300.078552,214.391006 300.911316,216.057037 301.572388,218.194122 
	C296.532410,223.479889 291.286621,228.298294 286.040863,233.116699 
z"/>
<path fill="#000000" opacity="1.000000" stroke="none" 
	d="
M285.910645,233.421387 
	C291.286621,228.298294 296.532410,223.479889 301.935669,218.355591 
	C306.392334,217.019165 309.917664,218.823166 311.580780,222.387161 
	C313.339294,226.155548 311.227325,229.503082 308.239624,232.331970 
	C303.090942,237.206940 298.172272,242.324844 293.020569,247.649857 
	C286.328644,254.063995 279.773224,260.169128 273.092255,266.582092 
	C264.051453,275.684631 255.136246,284.479309 246.092056,293.579071 
	C241.667603,297.128571 238.483688,296.970276 234.788376,293.283447 
	C228.071350,286.581818 221.369476,279.865082 214.351486,273.019714 
	C211.318100,270.043793 208.627975,267.169769 205.864014,264.368622 
	C199.941650,258.366516 200.270966,254.874191 207.641357,249.909409 
	C210.713333,251.101837 213.901520,251.837463 216.050461,253.744247 
	C221.377319,258.470886 226.229248,263.732788 231.576691,268.909302 
	C234.810608,272.110962 237.739792,275.182922 241.200394,278.812164 
	C247.972458,271.864014 254.408218,265.260895 260.977325,258.347107 
	C269.333923,249.932968 277.557190,241.829529 285.910645,233.421387 
z"/>
</svg>