<?xml version="1.0" standalone="no"?>
<!DOCTYPE svg PUBLIC "-//W3C//DTD SVG 20010904//EN"
 "http://www.w3.org/TR/2001/REC-SVG-20010904/DTD/svg10.dtd">
<svg version="1.0" xmlns="http://www.w3.org/2000/svg"
 width="833.000000pt" height="314.000000pt" viewBox="0 0 833.000000 314.000000"
 preserveAspectRatio="xMidYMid meet">
<metadata>
Created by potrace 1.16, written by Peter Selinger 2001-2019
</metadata>
<g transform="translate(0.000000,314.000000) scale(0.100000,-0.100000)"
fill="#000000" stroke="none">
<path d="M3890 2840 c-338 -65 -612 -234 -814 -504 -56 -75 -156 -255 -156
-282 0 -30 43 -44 135 -44 117 0 162 13 183 52 41 72 134 189 201 248 69 63
194 148 217 149 7 1 -2 -36 -22 -89 -34 -91 -68 -212 -79 -286 -9 -60 9 -74
98 -75 148 -3 151 -1 167 68 44 199 104 341 178 421 74 79 139 83 216 11 72
-65 128 -192 182 -404 9 -38 22 -76 27 -82 13 -17 218 -18 235 -1 7 7 12 25
12 40 0 35 -52 234 -80 308 -28 71 -33 90 -27 90 2 0 26 -12 53 -27 118 -65
244 -184 331 -313 28 -42 59 -82 68 -90 22 -19 217 -27 258 -11 37 14 35 37
-13 132 -56 111 -83 152 -162 246 -117 141 -250 244 -428 333 -227 114 -533
157 -780 110z"/>
<path d="M255 1848 c-3 -7 -4 -144 -3 -303 l3 -290 90 0 90 0 3 107 3 107 142
3 142 3 3 58 3 57 -133 0 c-73 0 -139 4 -146 9 -9 5 -12 24 -10 52 l3 44 168
3 168 2 -3 78 -3 77 -258 3 c-202 2 -259 0 -262 -10z"/>
<path d="M1001 1838 c-41 -110 -187 -501 -198 -532 -8 -23 -10 -43 -5 -48 5
-5 49 -8 98 -6 l89 3 17 35 c22 44 35 48 138 49 109 1 126 -4 141 -42 7 -18
18 -35 23 -39 6 -4 47 -8 91 -8 44 0 85 4 91 8 8 5 -21 94 -92 287 -57 154
-108 287 -113 295 -6 12 -35 16 -140 18 -129 3 -131 2 -140 -20z"/>
<path d="M1605 1847 c-3 -7 -4 -143 -3 -302 l3 -290 75 -3 c120 -5 120 -5 120
82 l0 73 41 33 42 33 45 -49 c25 -27 72 -77 105 -111 l59 -63 103 0 c57 0 106
4 110 9 5 9 -35 56 -166 196 -72 77 -119 131 -119 138 0 3 44 42 98 88 117
100 182 160 182 171 0 4 -51 8 -113 8 l-112 0 -130 -115 c-72 -63 -133 -114
-137 -115 -5 0 -8 46 -8 103 0 67 -4 107 -12 115 -17 17 -177 16 -183 -1z"/>
<path d="M2425 1838 c-3 -13 -4 -149 -3 -303 l3 -280 257 -3 c298 -3 284 -8
272 98 l-7 60 -71 1 c-39 1 -111 2 -161 3 l-90 1 -3 37 -3 37 143 3 143 3 0
55 0 55 -143 3 -143 3 3 42 3 42 163 3 163 2 -3 78 -3 77 -257 3 -258 2 -5
-22z"/>
<path d="M3087 1854 c-4 -4 -7 -139 -7 -300 0 -257 2 -293 16 -298 9 -3 107
-6 219 -6 222 0 266 8 317 57 66 63 63 191 -6 255 l-27 24 22 49 c37 84 12
160 -67 200 -35 18 -62 20 -249 23 -116 2 -214 0 -218 -4z m383 -364 c22 -22
25 -37 11 -59 -7 -11 -33 -15 -103 -15 l-93 -1 -3 33 c-6 58 -1 62 88 62 67 0
83 -3 100 -20z"/>
<path d="M3794 1846 c-3 -8 -4 -102 -2 -208 3 -157 7 -201 21 -233 26 -57 74
-104 137 -132 47 -21 70 -25 155 -26 90 0 106 3 165 30 72 33 110 71 134 135
14 36 16 78 14 243 l-3 200 -90 0 -90 0 -5 -190 c-3 -128 -9 -197 -18 -212
-27 -48 -106 -67 -161 -39 -54 28 -56 35 -61 245 l-5 196 -93 3 c-75 2 -93 0
-98 -12z"/>
<path d="M4687 1842 c-105 -37 -151 -111 -127 -201 24 -90 98 -127 317 -161
83 -13 108 -28 99 -57 -10 -31 -101 -49 -168 -33 -40 10 -54 19 -70 46 l-20
34 -83 0 c-49 0 -87 -4 -90 -11 -13 -19 17 -100 49 -133 52 -55 132 -79 266
-79 217 0 328 69 317 196 -9 98 -97 150 -317 188 -91 15 -110 24 -110 50 0 24
36 39 94 39 48 0 106 -17 106 -31 0 -5 9 -18 20 -29 16 -16 33 -20 89 -20 38
0 76 3 85 6 21 8 20 37 -3 82 -50 96 -131 132 -296 131 -76 0 -125 -6 -158
-17z"/>
<path d="M5267 1853 c-4 -3 -7 -39 -7 -79 l0 -73 98 -3 97 -3 5 -220 5 -220
90 0 90 0 5 220 5 220 98 3 98 3 -3 77 -3 77 -286 3 c-157 1 -288 -1 -292 -5z"/>
<path d="M5966 1851 c-9 -14 -8 -583 2 -593 4 -4 123 -7 263 -6 l254 3 3 78 3
77 -58 1 c-32 1 -107 2 -168 2 l-110 2 0 35 0 35 143 3 142 3 0 59 0 59 -142
3 -143 3 0 40 0 40 168 3 168 2 -3 78 -3 77 -257 3 c-141 1 -259 -2 -262 -7z"/>
<path d="M6625 1838 c-3 -13 -4 -149 -3 -303 l3 -280 75 -3 c123 -5 120 -7
120 98 l0 90 54 0 54 0 51 -79 c72 -113 69 -111 164 -111 45 0 87 4 93 8 8 5
-10 40 -53 105 l-65 99 35 32 c85 78 89 215 10 298 -54 56 -112 68 -333 68
-199 0 -200 0 -205 -22z m399 -151 c22 -16 25 -65 5 -78 -8 -5 -58 -9 -111 -9
l-98 0 0 43 c0 24 3 47 7 50 12 13 178 8 197 -6z"/>
<path d="M7475 1839 c-91 -34 -137 -109 -120 -196 14 -75 110 -132 257 -153
103 -15 156 -30 162 -47 10 -24 -10 -40 -64 -53 -71 -17 -146 1 -169 42 -20
35 -37 40 -126 36 -68 -3 -70 -4 -73 -30 -4 -36 31 -101 70 -132 60 -45 121
-60 253 -58 168 1 249 34 292 115 29 56 14 136 -34 179 -31 28 -111 59 -192
74 -178 33 -181 34 -181 65 0 25 36 39 98 39 56 0 93 -17 107 -48 13 -29 33
-34 120 -30 68 3 70 4 73 30 4 36 -31 102 -70 131 -57 42 -121 57 -242 56 -82
-1 -124 -6 -161 -20z"/>
<path d="M3638 1123 c-72 -4 -78 -6 -84 -27 -7 -29 36 -207 76 -317 17 -44 30
-85 30 -91 0 -15 -20 -5 -102 49 -92 60 -218 187 -283 284 -27 40 -56 79 -65
86 -10 8 -58 12 -142 13 -119 0 -128 -1 -138 -21 -10 -17 -4 -35 30 -104 62
-125 152 -249 254 -350 202 -199 444 -314 749 -358 l149 -21 146 21 c173 25
279 57 418 124 245 119 444 312 575 556 77 146 71 156 -96 155 -63 -1 -124 -6
-135 -12 -10 -6 -40 -43 -66 -83 -63 -98 -182 -218 -279 -281 -95 -63 -120
-74 -110 -49 54 133 108 335 103 385 l-3 33 -115 8 c-87 5 -117 4 -126 -5 -6
-7 -19 -47 -28 -88 -22 -96 -72 -242 -104 -300 -61 -110 -111 -150 -186 -150
-40 0 -52 5 -91 41 -46 42 -104 137 -131 211 -8 24 -29 95 -45 158 -17 63 -35
120 -41 127 -6 7 -27 12 -47 11 -20 -1 -71 -4 -113 -5z"/>
</g>
</svg>
